<svg aria-hidden="true" style="position: absolute; width: 0; height: 0; overflow: hidden;" version="1.1" xmlns="http://www.w3.org/2000/svg" xmlns:xlink="http://www.w3.org/1999/xlink">
<defs>
<symbol id="icon-flower" viewBox="0 0 32 32">
<path d="M23.8 9.913v-4.956c0-0.547-0.444-0.991-0.992-0.991h-0.992v-2.973c0-0.547-0.444-0.991-0.992-0.991-1.404 0-3.554-0.108-6.078 1.404-1.569-0.467-2.679-0.413-3.839-0.413-0.548 0-0.992 0.444-0.992 0.991v1.982h-0.992c-0.548 0-0.992 0.444-0.992 0.991v4.956c0 4.037 3.034 7.378 6.942 7.867v12.947c0 0.547 0.444 0.991 0.992 0.991s0.992-0.444 0.992-0.991v-3.469h1.487c3.007 0 5.454-2.445 5.454-5.451v-1.487c0-0.547-0.444-0.991-0.992-0.991h-2.479c-1.317 0-2.527 0.469-3.471 1.249v-2.798c3.902-0.483 6.942-3.808 6.942-7.867zM21.817 9.913c0 1.764-0.78 3.357-2.014 4.449 0.020-0.159 0.031-0.321 0.031-0.485 0-2.51-0.939-4.805-2.483-6.553 1.309-0.893 2.862-1.376 4.467-1.376v3.965zM19.834 1.984v2.182c-0.183 0.037-0.365 0.080-0.546 0.127-0.643-0.72-1.377-1.333-2.178-1.828 0.866-0.316 1.785-0.481 2.724-0.481zM11.901 2.975c1.97 0 3.883 0.719 5.371 2.093-0.491 0.253-0.962 0.549-1.408 0.883-1.153-0.866-2.5-1.488-3.964-1.786v-1.19zM9.917 9.913v-3.965c4.374 0 7.933 3.557 7.933 7.929 0 1.108-0.915 2.010-2.035 1.981-3.484-0.086-5.898-2.852-5.898-5.946zM20.33 21.311h1.487v0.496c0 1.913-1.557 3.469-3.471 3.469h-1.487v-0.496c0-1.913 1.557-3.469 3.471-3.469z"></path>
</symbol>
<symbol id="icon-menu" viewBox="0 0 36 32">
<path d="M5.38 24h24.013v-2.667h-24.013v2.667zM5.38 17.333h24.013v-2.667h-24.013v2.667zM5.38 8v2.667h24.013v-2.667h-24.013z"></path>
</symbol>
<symbol id="icon-search" viewBox="0 0 32 32">
<path d="M22.222 19.556h-1.404l-0.498-0.48c1.742-2.027 2.791-4.658 2.791-7.52 0-6.382-5.173-11.556-11.556-11.556s-11.556 5.173-11.556 11.556c0 6.382 5.173 11.556 11.556 11.556 2.862 0 5.493-1.049 7.52-2.791l0.48 0.498v1.404l8.889 8.871 2.649-2.649-8.871-8.889zM11.556 19.556c-4.427 0-8-3.573-8-8s3.573-8 8-8c4.427 0 8 3.573 8 8s-3.573 8-8 8z"></path>
</symbol>
</defs>
</svg>
